<?xml version="1.0" standalone="no"?>
<!DOCTYPE svg PUBLIC "-//W3C//DTD SVG 20010904//EN"
 "http://www.w3.org/TR/2001/REC-SVG-20010904/DTD/svg10.dtd">
<svg version="1.0" xmlns="http://www.w3.org/2000/svg"
 width="796.000000pt" height="664.000000pt" viewBox="0 0 796.000000 664.000000"
 preserveAspectRatio="xMidYMid meet">

<g transform="translate(0.000000,664.000000) scale(0.100000,-0.100000)"
fill="#000000" stroke="none">
<path d="M3955 6004 c-655 -67 -1177 -308 -1614 -745 -399 -400 -638 -878
-728 -1459 -25 -161 -25 -539 0 -700 90 -581 329 -1059 728 -1459 400 -399
878 -638 1459 -728 161 -25 539 -25 700 0 581 90 1059 329 1459 728 399 400
638 878 728 1459 25 161 25 539 0 700 -90 581 -329 1059 -728 1459 -397 396
-880 639 -1449 726 -101 15 -468 28 -555 19z m535 -169 c588 -89 1134 -393
1503 -837 299 -361 483 -783 548 -1258 17 -122 17 -458 0 -580 -38 -280 -114
-533 -231 -769 -244 -490 -611 -858 -1100 -1100 -233 -115 -462 -187 -730
-228 -159 -24 -501 -24 -660 0 -540 83 -995 310 -1371 686 -376 376 -603 831
-686 1371 -24 159 -24 501 0 660 83 540 310 995 686 1371 411 411 925 648
1521 703 91 8 418 -4 520 -19z"/>
<path d="M4665 4877 c-198 -65 -308 -270 -250 -465 24 -81 87 -108 135 -57 20
21 22 30 15 67 -14 70 -10 160 7 193 39 75 120 124 201 125 86 0 152 -41 203
-127 38 -66 113 -71 142 -10 29 61 -70 197 -185 253 -46 23 -73 29 -142 31
-52 2 -102 -2 -126 -10z"/>
<path d="M5650 4579 c-182 -36 -327 -203 -338 -390 -8 -130 32 -234 124 -326
146 -147 383 -165 545 -43 65 49 103 95 134 163 68 149 51 315 -46 437 -42 54
-71 62 -123 39 -20 -10 -30 -9 -49 4 -13 8 -42 21 -64 27 -31 10 -42 19 -52
45 -8 23 -21 37 -43 44 -17 6 -34 11 -37 10 -3 -1 -26 -5 -51 -10z m129 -191
c73 -98 134 -245 147 -356 7 -65 1 -73 -73 -112 -104 -54 -233 -30 -316 59
-142 151 -69 390 134 445 30 8 57 15 61 15 4 1 25 -23 47 -51z"/>
<path d="M2867 4130 c-197 -50 -324 -258 -277 -454 14 -61 28 -82 61 -95 32
-12 85 10 94 39 4 12 1 51 -6 86 -26 133 38 240 164 275 87 24 198 -26 247
-111 46 -79 115 -87 148 -17 12 26 11 34 -13 82 -34 71 -118 147 -193 175 -65
25 -169 34 -225 20z"/>
<path d="M4998 3930 c-9 -6 -29 -43 -44 -83 -75 -201 -180 -355 -332 -490
-222 -198 -455 -292 -753 -304 -213 -8 -377 23 -572 111 -32 14 -68 26 -81 26
-31 0 -66 -40 -66 -76 0 -53 48 -83 229 -145 698 -239 1474 135 1717 828 l29
82 -21 28 c-23 30 -75 42 -106 23z"/>
<path d="M2421 3244 c-211 -57 -349 -267 -312 -475 45 -257 298 -415 543 -339
274 84 385 409 222 647 -42 61 -76 77 -122 57 -29 -12 -37 -11 -85 11 -28 14
-60 25 -69 25 -12 0 -18 8 -18 24 0 31 -43 66 -79 65 -14 0 -50 -7 -80 -15z
m147 -180 c78 -92 157 -294 150 -386 -3 -37 -8 -46 -43 -69 -86 -58 -209 -58
-298 2 -165 109 -155 352 19 459 27 17 66 29 126 39 3 1 24 -20 46 -45z"/>
<path d="M4390 2860 c-36 -16 -75 -38 -87 -49 -48 -41 -16 -121 47 -121 44 0
178 59 201 88 24 32 24 53 -2 86 -27 34 -73 33 -159 -4z"/>
</g>
</svg>
