<?xml version="1.0" standalone="no"?>
<!DOCTYPE svg PUBLIC "-//W3C//DTD SVG 20010904//EN"
 "http://www.w3.org/TR/2001/REC-SVG-20010904/DTD/svg10.dtd">
<svg version="1.0" xmlns="http://www.w3.org/2000/svg"
 width="632.000000pt" height="618.000000pt" viewBox="0 0 632.000000 618.000000"
 preserveAspectRatio="xMidYMid meet">

<g transform="translate(0.000000,618.000000) scale(0.100000,-0.100000)"
fill="#000000" stroke="none">
<path d="M2955 5669 c-88 -8 -314 -49 -387 -69 -43 -12 -68 -42 -68 -81 0 -33
35 -79 61 -79 10 0 85 13 166 30 527 106 1045 37 1516 -202 449 -228 814 -597
1032 -1043 251 -515 308 -1067 165 -1619 -209 -811 -855 -1453 -1674 -1661
-209 -53 -343 -69 -571 -69 -378 0 -692 73 -1031 239 -684 336 -1152 983
-1271 1755 -21 141 -24 490 -5 625 76 531 312 1000 686 1362 185 181 357 303
583 417 61 30 113 62 117 71 20 52 -6 109 -54 120 -51 12 -329 -142 -530 -293
-130 -98 -336 -298 -430 -417 -225 -285 -394 -629 -479 -976 -43 -179 -61
-310 -67 -509 -34 -999 541 -1920 1456 -2335 869 -394 1880 -257 2614 354 480
399 798 985 875 1609 93 752 -171 1516 -709 2052 -527 526 -1256 788 -1995
719z"/>
<path d="M2110 3260 c-28 -28 -33 -59 -20 -130 24 -132 82 -210 198 -267 72
-36 81 -38 171 -38 87 0 102 3 161 31 36 17 82 45 101 62 76 67 137 243 109
313 -22 52 -77 65 -122 29 -20 -15 -27 -33 -32 -74 -15 -117 -96 -189 -211
-189 -125 0 -225 95 -225 215 0 56 -89 89 -130 48z"/>
<path d="M3570 3260 c-28 -28 -33 -59 -20 -130 24 -132 82 -210 198 -267 72
-36 81 -38 171 -38 87 0 102 3 161 31 36 17 82 45 101 62 76 67 137 243 109
313 -22 52 -77 65 -122 29 -20 -15 -27 -33 -32 -74 -15 -117 -96 -189 -211
-189 -125 0 -225 95 -225 215 0 56 -89 89 -130 48z"/>
<path d="M3277 2275 c-193 -37 -427 -161 -637 -338 -65 -54 -75 -68 -78 -99
-3 -29 2 -40 28 -62 17 -14 40 -26 50 -26 10 0 57 29 103 64 384 293 692 380
925 262 28 -14 65 -26 81 -26 50 0 85 62 65 115 -8 21 -100 67 -189 94 -92 29
-243 36 -348 16z"/>
</g>
</svg>
